<?xml version="1.0" standalone="no"?>
<!DOCTYPE svg PUBLIC "-//W3C//DTD SVG 20010904//EN"
 "http://www.w3.org/TR/2001/REC-SVG-20010904/DTD/svg10.dtd">
<svg version="1.0" xmlns="http://www.w3.org/2000/svg"
 width="1920.000000pt" height="1080.000000pt" viewBox="0 0 1920.000000 1080.000000"
 preserveAspectRatio="xMidYMid meet">

<g transform="translate(0.000000,1080.000000) scale(0.100000,-0.100000)"
fill="#000000" stroke="none">
<path d="M0 5400 l0 -5400 9600 0 9600 0 0 5400 0 5400 -9600 0 -9600 0 0
-5400z m5064 5244 c21 -8 20 -31 -1 -42 -24 -14 -50 13 -33 33 14 17 13 17 34
9z m11511 -323 c7 -12 -12 -24 -25 -16 -11 7 -4 25 10 25 5 0 11 -4 15 -9z
m-8651 -59 c15 -18 15 -20 -2 -35 -18 -16 -20 -16 -37 3 -14 16 -15 22 -5 35
16 19 23 19 44 -3z m8781 -232 c-60 -60 -111 -107 -114 -104 -7 6 200 213 214
214 5 0 -40 -49 -100 -110z m-12580 -19 c7 -12 -12 -24 -25 -16 -11 7 -4 25
10 25 5 0 11 -4 15 -9z m-1335 -36 c0 -8 -7 -15 -15 -15 -16 0 -20 12 -8 23
11 12 23 8 23 -8z m3170 -10 c0 -8 -4 -15 -9 -15 -13 0 -22 16 -14 24 11 11
23 6 23 -9z m7910 -60 c0 -8 -7 -15 -15 -15 -8 0 -15 7 -15 15 0 8 7 15 15 15
8 0 15 -7 15 -15z m-12264 -52 c10 -15 10 -21 -3 -35 -12 -14 -19 -15 -30 -7
-16 14 -17 31 -1 47 16 16 18 15 34 -5z m8428 -132 c16 -17 16 -20 1 -35 -19
-18 -18 -18 -39 -10 -19 7 -21 30 -3 49 16 19 21 18 41 -4z m1804 -83 c-8 -12
-25 -29 -39 -37 -17 -11 -14 -6 11 21 40 43 49 48 28 16z m-68 -65 c0 -11
-333 -343 -345 -343 -8 0 333 349 343 350 1 0 2 -3 2 -7z m-4750 -23 c0 -5 -5
-10 -11 -10 -5 0 -7 5 -4 10 3 6 8 10 11 10 2 0 4 -4 4 -10z m10255 -210 c18
-20 18 -21 -2 -41 -18 -18 -23 -19 -42 -8 -25 17 -26 27 -4 51 20 23 26 23 48
-2z m-9988 -16 c9 -23 -11 -38 -26 -20 -13 16 -7 36 10 36 5 0 12 -7 16 -16z
m5668 -152 c0 -18 -20 -15 -23 4 -3 10 1 15 10 12 7 -3 13 -10 13 -16z m945
-127 c0 -8 -7 -15 -15 -15 -8 0 -15 7 -15 15 0 8 7 15 15 15 8 0 15 -7 15 -15z
m-8782 -26 c-2 -6 -8 -10 -13 -10 -5 0 -11 4 -13 10 -2 6 4 11 13 11 9 0 15
-5 13 -11z m-2705 -178 c-13 -21 -33 -20 -47 2 -9 15 -7 21 8 32 16 12 21 12
34 -2 11 -11 13 -19 5 -32z m8582 -71 c3 -5 -1 -10 -9 -10 -9 0 -16 5 -16 10
0 6 4 10 9 10 6 0 13 -4 16 -10z m1025 -100 c0 -21 -24 -28 -35 -10 -8 14 3
30 21 30 8 0 14 -9 14 -20z m-5464 -251 c7 -12 -15 -31 -28 -23 -4 3 -8 12 -8
20 0 17 26 19 36 3z m2554 -29 c0 -5 -7 -10 -15 -10 -8 0 -15 5 -15 10 0 6 7
10 15 10 8 0 15 -4 15 -10z m-5384 -111 c10 -17 -13 -36 -27 -22 -12 12 -4 33
11 33 5 0 12 -5 16 -11z m11179 -39 c3 -5 1 -10 -4 -10 -6 0 -11 5 -11 10 0 6
2 10 4 10 3 0 8 -4 11 -10z m3455 -95 c0 -8 -7 -15 -15 -15 -8 0 -15 7 -15 15
0 8 7 15 15 15 8 0 15 -7 15 -15z m-2650 -26 c0 -5 -7 -9 -15 -9 -15 0 -20 12
-9 23 8 8 24 -1 24 -14z m-14980 -8 c0 -6 -4 -13 -10 -16 -5 -3 -10 1 -10 9 0
9 5 16 10 16 6 0 10 -4 10 -9z m12228 -395 c6 -29 -15 -43 -35 -24 -14 14 -14
20 -3 33 16 19 34 15 38 -9z m4082 -246 c0 -21 -24 -28 -35 -10 -8 14 3 30 21
30 8 0 14 -9 14 -20z m-5230 -110 c0 -5 -4 -10 -10 -10 -5 0 -10 5 -10 10 0 6
5 10 10 10 6 0 10 -4 10 -10z m5260 -15 c0 -8 -4 -15 -10 -15 -5 0 -10 7 -10
15 0 8 5 15 10 15 6 0 10 -7 10 -15z m-14600 -56 c0 -5 -7 -9 -15 -9 -15 0
-20 12 -9 23 8 8 24 -1 24 -14z m8825 1 c3 -5 -1 -10 -9 -10 -9 0 -16 5 -16
10 0 6 4 10 9 10 6 0 13 -4 16 -10z m3795 -75 c26 -31 -18 -71 -47 -43 -12 12
-13 20 -4 37 14 25 34 27 51 6z m-8670 -95 c0 -5 -4 -10 -10 -10 -5 0 -10 5
-10 10 0 6 5 10 10 10 6 0 10 -4 10 -10z m6240 -440 c0 -5 -4 -10 -10 -10 -5
0 -10 5 -10 10 0 6 5 10 10 10 6 0 10 -4 10 -10z m-7976 -371 c-3 -5 -10 -7
-15 -3 -5 3 -7 10 -3 15 3 5 10 7 15 3 5 -3 7 -10 3 -15z"/>
</g>
</svg>
